<svg width="80" height="75" viewBox="0 0 80 75" fill="none" xmlns="http://www.w3.org/2000/svg">
<g filter="url(#filter0_d_87_177)">
<ellipse cx="40" cy="33.952" rx="32" ry="29.0482" fill="white"/>
</g>
<path opacity="0.4" d="M50.7833 41.2594L51.4333 46.0403C51.6 47.296 50.1167 48.1735 48.9333 47.523L41.95 43.7558C41.1833 43.7558 40.4335 43.7104 39.7002 43.6196C40.9335 42.3034 41.6667 40.6391 41.6667 38.8388C41.6667 34.5421 37.5667 31.0623 32.5001 31.0623C30.5667 31.0623 28.7834 31.5616 27.3001 32.4391C27.2501 32.0609 27.2334 31.6826 27.2334 31.2893C27.2334 24.4054 33.8167 18.8228 41.95 18.8228C50.0833 18.8228 56.6667 24.4054 56.6667 31.2893C56.6667 35.3742 54.35 38.9901 50.7833 41.2594Z" fill="#D5B5FF"/>
<path d="M41.6663 38.8385C41.6663 40.6388 40.933 42.3031 39.6997 43.6193C38.0497 45.4348 35.433 46.5998 32.4997 46.5998L28.1497 48.9448C27.4163 49.3533 26.483 48.7935 26.583 48.0219L26.9997 45.0415C24.7663 43.6344 23.333 41.3802 23.333 38.8385C23.333 36.1757 24.8997 33.8307 27.2997 32.4388C28.783 31.5613 30.5663 31.062 32.4997 31.062C37.5663 31.062 41.6663 34.5417 41.6663 38.8385Z" fill="#993FF4"/>
<defs>
<filter id="filter0_d_87_177" x="0" y="0.903809" width="80" height="74.0964" filterUnits="userSpaceOnUse" color-interpolation-filters="sRGB">
<feFlood flood-opacity="0" result="BackgroundImageFix"/>
<feColorMatrix in="SourceAlpha" type="matrix" values="0 0 0 0 0 0 0 0 0 0 0 0 0 0 0 0 0 0 127 0" result="hardAlpha"/>
<feOffset dy="4"/>
<feGaussianBlur stdDeviation="4"/>
<feColorMatrix type="matrix" values="0 0 0 0 0.419608 0 0 0 0 0.447059 0 0 0 0 0.501961 0 0 0 0.08 0"/>
<feBlend mode="normal" in2="BackgroundImageFix" result="effect1_dropShadow_87_177"/>
<feBlend mode="normal" in="SourceGraphic" in2="effect1_dropShadow_87_177" result="shape"/>
</filter>
</defs>
</svg>
