<svg width="21" height="20" viewBox="0 0 21 20" fill="none"
  xmlns="http://www.w3.org/2000/svg">
  <g clip-path="url(#clip0_206_400)">
    <path d="M10.25 20C15.9109 20 20.5 15.5228 20.5 10C20.5 4.47715 15.9109 0 10.25 0C4.58908 0 0 4.47715 0 10C0 15.5228 4.58908 20 10.25 20Z" fill="#111618"/>
    <path d="M13.352 5.52794L11.2095 8.61C11.179 8.65438 11.1661 8.708 11.1732 8.76087C11.1803 8.81375 11.207 8.86238 11.2482 8.89769C11.2894 8.933 11.3425 8.95269 11.3976 8.95306C11.4526 8.95337 11.5059 8.93444 11.5477 8.89969L13.6567 7.12725C13.6691 7.11656 13.6844 7.10956 13.7008 7.10712C13.7172 7.10469 13.7339 7.10694 13.749 7.11362C13.7641 7.12025 13.7769 7.131 13.7858 7.14463C13.7946 7.15819 13.7993 7.17394 13.7991 7.19V12.739C13.7991 12.7559 13.7937 12.7726 13.7836 12.7864C13.7735 12.8004 13.7593 12.8109 13.7428 12.8168C13.7264 12.8225 13.7084 12.8233 13.6915 12.8189C13.6745 12.8144 13.6594 12.8051 13.6481 12.7921L7.27321 5.39829C7.17071 5.28098 7.04303 5.18671 6.89908 5.12203C6.75513 5.05736 6.59837 5.02384 6.43969 5.02381H6.21691C5.92732 5.02381 5.64959 5.13526 5.44481 5.33366C5.24004 5.53206 5.125 5.80116 5.125 6.08174V13.8969C5.125 14.1775 5.24004 14.4466 5.44481 14.645C5.64959 14.8434 5.92732 14.9548 6.21691 14.9548C6.40363 14.9549 6.58723 14.9086 6.75027 14.8203C6.91324 14.7321 7.05014 14.6048 7.14797 14.4507L9.29047 11.3686C9.32103 11.3243 9.33391 11.2706 9.3268 11.2178C9.31968 11.1649 9.29303 11.1163 9.25178 11.0809C9.21059 11.0456 9.15754 11.0259 9.10245 11.0256C9.04742 11.0253 8.99412 11.0442 8.95235 11.079L6.84328 12.8514C6.83092 12.8621 6.81561 12.8691 6.79921 12.8715C6.78281 12.8739 6.76609 12.8717 6.75097 12.8651C6.73585 12.8584 6.7231 12.8476 6.7142 12.8341C6.70536 12.8205 6.70075 12.8047 6.70094 12.7886V7.23831C6.70094 7.22131 6.70632 7.20475 6.71644 7.19081C6.7265 7.17687 6.74072 7.16631 6.75718 7.1605C6.77365 7.15475 6.79159 7.154 6.8085 7.15837C6.82548 7.16281 6.84059 7.17219 6.85187 7.18519L13.2261 14.5804C13.3286 14.6977 13.4563 14.7919 13.6002 14.8566C13.7442 14.9212 13.9009 14.9548 14.0596 14.9548H14.2823C14.4258 14.9549 14.5679 14.9276 14.7004 14.8745C14.833 14.8214 14.9535 14.7434 15.0549 14.6452C15.1564 14.547 15.2369 14.4303 15.2918 14.3019C15.3467 14.1735 15.375 14.0359 15.375 13.8969V6.08174C15.375 5.80116 15.2599 5.53206 15.0552 5.33366C14.8504 5.13526 14.5727 5.02381 14.2831 5.02381C14.0964 5.02376 13.9128 5.07007 13.7498 5.15832C13.5868 5.24658 13.4499 5.37384 13.352 5.52794Z" fill="white"/>
  </g>
  <defs>
    <clipPath id="clip0_206_400">
      <rect width="20.5" height="20" fill="white"/>
    </clipPath>
  </defs>
</svg>
